<svg xmlns="http://www.w3.org/2000/svg" viewBox="0 0 128 128" width="128" height="128">
  <!-- A: pure leaf — web logo master (header, login, docs, branding) -->
  <defs>
    <linearGradient id="leaf" x1="0%" y1="0%" x2="100%" y2="100%">
      <stop offset="0%" stop-color="#059669"/>
      <stop offset="100%" stop-color="#10b981"/>
    </linearGradient>
  </defs>
  <path d="M64 8C40 8 19 30 15 56c-3 20 6 44 24 58 9 7 17 10 25 10s16-3 25-10c18-14 27-38 24-58C109 30 88 8 64 8z" fill="url(#leaf)"/>
  <!-- Central vein, tapered -->
  <path d="M40 36c9 16 17 30 28 44 6-8 10-17 13-26-7 4-12 7-18 10-9-10-16-18-23-28z" fill="#ffffff" fill-opacity="0.9"/>
</svg>
